<svg aria-hidden="true" viewBox="0 0 100 100" xmlns="http://www.w3.org/2000/svg" xml:space="preserve" fill-rule="evenodd" clip-rule="evenodd" stroke-linejoin="round" stroke-miterlimit="2"><path fill="none" d="M0 0h100v100H0z"/><path d="M54.524 69.141h2.32c6.961-.348 11.833-5.8 11.833-12.296 0-2.205-.464-4.409-1.508-6.149H54.524v18.445ZM41.764 50.58h11.6v18.561h-11.6V50.58Zm24.71-1.16c-1.16-1.624-2.785-2.9-4.525-3.828 2.088-1.508 3.48-3.945 3.48-6.613a8.07 8.07 0 0 0-8.12-8.12h-2.785v18.56h11.95Zm-24.71-18.562h11.6V49.42h-11.6V30.858Zm44.083 38.283h2.32c6.96-.348 11.833-5.8 11.833-12.296 0-2.205-.464-4.409-1.508-6.149H85.847v18.445ZM73.086 50.58h11.6v18.561h-11.6V50.58Zm24.71-1.16c-1.16-1.624-2.785-2.9-4.525-3.828 2.088-1.508 3.48-3.945 3.48-6.613a8.07 8.07 0 0 0-8.12-8.12h-2.784v18.56h11.949Zm-24.71-18.562h11.6V49.42h-11.6V30.858ZM6.613 50.58 0 69.141h9.629l2.784-8.12h6.148V50.58H6.613ZM18.56 30.859h-4.988l-6.612 18.56h11.6V30.86Zm1.16 30.162h6.149l2.784 8.12h9.629L31.67 50.58H19.722v10.44ZM31.323 49.42 24.71 30.858h-4.988V49.42h11.6Z" fill="#ff000f" fill-rule="nonzero"/></svg>
