<svg viewBox="0 0 100 100" xmlns="http://www.w3.org/2000/svg" xml:space="preserve" fill-rule="evenodd" clip-rule="evenodd" stroke-linejoin="round" stroke-miterlimit="2"><path fill="none" d="M0 0h100v100H0z"/><path d="M50 1.235c-27.61 0-50 22.384-50 50 0 22.09 14.327 40.833 34.193 47.444 2.5.463 3.417-1.084 3.417-2.405 0-1.192-.047-5.13-.068-9.309-13.91 3.025-16.846-5.9-16.846-5.9-2.274-5.778-5.551-7.315-5.551-7.315-4.537-3.104.342-3.04.342-3.04 5.02.353 7.664 5.153 7.664 5.153 4.46 7.644 11.697 5.434 14.55 4.156.45-3.23 1.745-5.437 3.175-6.686-11.106-1.263-22.78-5.552-22.78-24.71 0-5.458 1.953-9.92 5.151-13.421-.519-1.26-2.23-6.345.485-13.232 0 0 4.198-1.343 13.753 5.126 3.989-1.108 8.266-1.664 12.515-1.683 4.25.02 8.53.575 12.526 1.683 9.543-6.47 13.736-5.126 13.736-5.126 2.722 6.887 1.01 11.973.49 13.232 3.207 3.501 5.147 7.963 5.147 13.42 0 19.206-11.697 23.434-22.831 24.671 1.793 1.552 3.391 4.595 3.391 9.26 0 6.69-.058 12.074-.058 13.721 0 1.33.9 2.89 3.435 2.399C85.692 92.053 100 73.319 100 51.235c0-27.616-22.386-50-50-50Z" fill="#181717"/></svg>
