<svg aria-hidden="true" viewBox="0 0 100 100" xmlns="http://www.w3.org/2000/svg" xml:space="preserve" fill-rule="evenodd" clip-rule="evenodd" stroke-linejoin="round" stroke-miterlimit="2"><path fill="none" d="M0 0h100v100H0z"/><path d="M0 86.216v-4.455c3.949-.28 6.29-.559 7.024-.84.42-.137.75-.382.995-.732.315-.455.525-1.118.63-1.991.246-1.991.454-6.342.628-13.05.106-3.25.158-8.84.158-16.772 0-7.093-.052-13.373-.158-18.842-.104-5.468-.33-8.727-.68-9.775-.14-.488-.36-.865-.656-1.127-.296-.26-.865-.463-1.703-.603-2.305-.383-4.384-.611-6.237-.681v-4.455c7.199.21 12.159.314 14.885.314 3.6 0 7.215-.104 10.849-.314l4.613 10.378 3.667 7.862 16.668 34.381c3.564-6.883 6.236-12.229 8.019-16.039L65.62 34.96c3.844-8.107 6.194-13.094 7.05-14.963.855-1.871 1.824-4.237 2.908-7.103 4.577.244 7.511.366 8.805.366l15.619-.366v4.455h-.734c-3.529-.035-5.766.376-6.708 1.231-.943.858-1.416 2.508-1.416 4.954 0 2.9-.018 5.102-.052 6.604l-.263 14.727v18.397c0 4.473.018 7.093.052 7.862.28 4.437.525 7.16.736 8.174.104.49.296.884.575 1.18.28.297.683.525 1.205.681.525.159 2.727.359 6.605.603v4.455l-16.72-.314-16.352.314v-4.455c4.333-.14 6.805-.392 7.416-.759.61-.369 1.05-1.198 1.31-2.49.262-1.294.395-5.627.395-12.998V27.36L63.89 51.939l-5.817 12.213c-1.539 3.213-3.704 7.878-6.498 13.994-1.713 3.703-3.06 6.69-4.037 8.961h-3.563c-1.258-2.934-3.075-6.952-5.453-12.054-4.052-8.736-7.127-15.252-9.224-19.55L15.515 27.359v25.734c0 4.296.062 9.406.184 15.33.122 5.923.253 9.276.393 10.063.14.785.358 1.354.655 1.703.296.35.821.647 1.572.891.751.245 2.89.47 6.42.681v4.455a223.71 223.71 0 0 0-12.002-.314c-5.347 0-9.591.104-12.736.314Z" fill-rule="nonzero" fill="#c41230" /></svg>
