<svg viewBox="0 0 1025 1025" xmlns="http://www.w3.org/2000/svg" xml:space="preserve" fill-rule="evenodd" clip-rule="evenodd" stroke-linejoin="round" stroke-miterlimit="2"><path fill="none" d="M0 0h1025v1025H0z"/><path d="M615.02 139.94c24.14-3.69 48.62-5.93 73.05-4.62 14.09.95 28.47 2.93 41.32 9.1 8.28 3.89 15.83 10.37 18.95 19.19 2.72 6.86 2.84 15.06-1.14 21.47-5.2 8.74-14.68 13.66-23.79 17.39-21.81 8.19-45.31 10.31-68.42 11.22-30.34.61-60.82-1.42-90.65-7.14 13.75 8.51 27.69 16.75 40.78 26.27 16.52 11.84 32.47 24.79 45.62 40.38 7.35 8.99 14.08 19.07 16.36 30.65 1.94 9.19-.78 19.21-6.95 26.27-5.83 6.55-15.27 8.45-23.67 7.31-15.68-2.02-29.99-9.51-43.37-17.55-27.02-16.81-51.02-38.08-73.02-60.96-16.15-17.01-31.17-35.17-43.95-54.86-13.32 36.12-31.47 70.36-52.42 102.61-12.59 19.01-26.37 37.4-42.94 53.14-10.21 9.39-21.65 18.37-35.34 21.82-9.59 2.52-20.28.21-27.86-6.21-4.96-4.32-7.69-10.87-7.83-17.39-.44-8.93 2.09-17.69 5.36-25.91 5.97-14.72 14.53-28.23 23.77-41.11 24.75-33.71 54.85-63.37 88.07-88.71-33.35 8.76-67.42 15.17-101.88 17.23-20.08 1.02-40.56.89-60.12-4.31-10.18-2.88-20.57-7.45-27.19-16.04-5.42-7.3-8.25-17.38-4.75-26.1 3.19-8.05 10.53-13.42 17.96-17.28 12-6.04 25.24-9.08 38.43-11.24 21.04-3.27 42.4-3.86 63.64-3.2 31.65 1.25 63.31 5.29 93.92 13.57 13.7 3.79 27.23 8.5 39.76 15.27 3.37 1.63 7.01 2.6 10.44 4.08 15.79-9.26 33.51-14.52 50.95-19.71 21.97-6.26 44.34-11.1 66.91-14.63Zm115.73 77.93c9.77-3.88 18.99-9.48 26.2-17.2 39.11 11.37 77.19 28.49 108.67 54.71 26.75 22.16 47.78 51.07 60.71 83.3 13.66 33.5 19.32 69.78 20.28 105.79 1.61 58.04-8.46 116.41-29.75 170.45-18.4 46.97-45.17 90.63-78.55 128.46-33.73 38.25-74.2 70.58-119.06 94.86-47.37 25.75-99.63 42.47-153.14 49.01-72.4 8.95-147.08-.34-214.83-27.53-72.3-28.74-136.44-77.5-183.73-139.26-49.95-64.8-80.89-144.04-87.9-225.57-3.11-37.04-2.29-74.66 5.18-111.16 7.11-34.85 21.2-68.61 43.34-96.63 25.79-33.03 61.76-56.87 100.25-72.68 7 6.88 15.77 11.74 25.01 14.93 12.7 4.51 26.16 6.36 39.56 7.2 24.81 1.42 49.68-.9 74.22-4.44-21.36 21.65-41.32 45.01-56.77 71.3-8.39 14.71-15.81 30.55-17.47 47.61-1.18 11.56 1.52 23.92 9.21 32.9 10.12 11.79 26.57 17.38 41.84 15.18 13.2-1.84 25.17-8.48 35.71-16.35 15.71-11.87 28.86-26.74 40.85-42.27 23.81-31.35 43.13-65.91 59.6-101.61 23.51 29.52 50.31 56.54 80.34 79.46 15 11.24 30.86 21.59 48.2 28.85 12.68 5.26 26.55 8.84 40.33 6.84 9.86-1.5 19.24-6.62 25.42-14.52 8.45-10.63 11.87-24.97 9.36-38.3-2.6-14.13-10.33-26.71-19.24-37.73-10-12.41-21.97-23.03-34.27-33.09 14.26.9 28.59.24 42.84-.69 19.56-1.57 39.28-4.49 57.59-11.82Z" fill="#549e4b"/><path d="M517 426c12.08 0 24.17-.01 36.25.01v91.03c.07 27.69-.41 55.41 1.27 83.07-10.65-.27-21.3-.02-31.95-.13-.51-3.29-.97-6.58-1.29-9.89-4.41 5.25-10.26 9.5-17 11.11-11.3 2.86-23.88-1.3-31.36-10.21-9.88-11.58-13.32-27.12-14.61-41.92-.96-15.61-.34-31.71 5.2-46.51 4.01-10.81 11.24-21.19 22.08-25.96 10.15-4.47 23.51-3.79 31.43 4.69-.04-18.43-.01-36.86-.02-55.29m-12.5 79.62c-5.15 2.3-7.07 8.23-8.42 13.27-2.42 11.17-2.57 22.8-.99 34.09.93 5.8 2.43 11.94 6.59 16.32 2.94 3.16 8.5 2.95 11.15-.48 3.32-4.11 4.24-9.63 4.17-14.78-.03-10.38.06-20.75-.05-31.12-.04-5.37-.77-11.22-4.53-15.36-1.89-2.26-5.2-3.03-7.92-1.94Zm-328.49-73.2c15.08-3.27 30.6-3.89 45.97-3.23 12.38.77 25.39 3.55 34.99 11.91 11.7 9.5 16.43 25.24 16.05 39.88.3 15.58-4.81 31.87-16.39 42.71-11.98 10.68-28.56 15.11-44.38 14.31 0 20.66.01 41.33 0 61.99-12.08.02-24.17 0-36.25.01.01-55.86-.02-111.72.01-167.58m36.21 27.42c.06 16.05.04 32.09.01 48.14 6.42.58 13.6-.65 18.21-5.53 5.4-5.65 6.59-13.93 6.4-21.44-.3-6.65-1.98-14.02-7.44-18.38-4.8-3.84-11.42-4-17.18-2.79Zm119.44 15.85c5.52-2.43 11.81-2.26 17.61-1-.01 12.16-.06 24.32.02 36.48-4.84-1.35-10.21-1.87-14.93.22-6.37 2.68-10.44 9.09-11.9 15.65-1.12 5.9-.96 11.94-.95 17.93-.01 18.34 0 36.67-.01 55.01-12.17.04-24.33.01-36.5.02-.31-41.34.87-82.7-1.23-124 10.74-.02 21.47.03 32.21-.03.48 4.33.89 8.67 1.3 13.01 3.45-5.64 8.24-10.64 14.38-13.29Zm59.84-.92c10.45-1.89 21.75-.71 31.02 4.73 9.28 5.39 16.08 14.41 19.88 24.35 5.41 13.66 6.22 28.62 5.37 43.14-1.13 15.45-5.65 31.67-17.09 42.73-16.34 16.39-46.05 16.6-62.28-.04-10.53-10.74-14.79-25.99-16.07-40.61-1.22-17.34 0-35.66 8.57-51.16 6.32-11.57 17.5-20.67 30.6-23.14m5.75 28.33c-3.14 1.72-4.71 5.17-5.89 8.37-2.95 8.88-3.18 18.37-3.33 27.64.54 10.16.3 21.12 5.7 30.14 1.96 3.63 7.62 5.71 10.78 2.41 3.98-4.21 4.89-10.28 5.92-15.76 1.48-10.91 1.64-22.02.37-32.96-.89-5.99-1.79-12.32-5.28-17.42-1.71-2.73-5.37-3.98-8.27-2.42Zm298.47-12.43c9.71-10.59 23.97-16.51 38.26-16.69 7.53-.18 15.32.62 22.19 3.94-1.6 9.8-3.27 19.59-4.88 29.38-7.17-2.75-15.69-4.49-22.81-.68-6.53 3.63-10.15 10.77-11.88 17.79-2.19 9.37-2 19.29.43 28.6 1.86 6.99 6.22 13.99 13.37 16.48 6.78 2.14 14.44 1.11 20.5-2.59 1.03 10.01 2.19 20.01 3.17 30.03-11.69 4.77-25.01 5.23-37.24 2.42-14.28-3.27-26.19-14.01-31.81-27.41-4.6-10.65-6.31-22.37-6.03-33.91-.21-17.03 4.97-34.71 16.73-47.36Zm104.03-15.81c11.01-2.12 23.22-.81 32.51 5.87 7.72 5.34 12.71 13.77 15.65 22.54 3.27 9.88 4.32 20.38 4.09 30.76.1 5.82.04 11.7-1.17 17.43-18.93.1-37.85.03-56.77.03.67 7.88 4.55 16.29 12.54 18.99 11.57 3.85 24.23 1.14 35.46-2.72 1.67 9.06 3.48 18.1 5.23 27.15-11.51 4.52-24 6.15-36.32 6.11-13.19.1-27.02-4.01-36.34-13.72-9.87-9.76-14.12-23.76-15.34-37.27-1.32-18.23.67-37.58 10.48-53.41 6.54-10.87 17.42-19.29 29.98-21.76m1.45 29.32c-4.95 5.68-6.15 13.54-6.79 20.79 8.04.05 16.09.03 24.13.02-.2-6.99-.82-14.59-5.09-20.41-2.78-4.06-9.18-4.13-12.25-.4Zm-229.7-28.17c12.16-.02 24.33-.01 36.5-.01v65.02c.35 9.15-.95 19.49 4.54 27.42 2.65 3.32 8.16 3.05 10.89-.04 3.68-4.2 4.55-9.99 4.56-15.38.02-25.68.01-51.35.01-77.02 12.08.01 24.16-.02 36.25.01.33 41.33-.89 82.7 1.22 124-10.64-.03-21.28.02-31.91-.03-.47-3.27-.92-6.54-1.37-9.8-6.71 7.2-16.25 12.04-26.22 11.85-9.41.41-19.36-3.17-25.06-10.95-7.24-9.73-8.81-22.3-9.4-34.07-.04-27 0-54-.01-81ZM606 613c12.08 0 24.16-.01 36.25.01-.01 19.61.03 39.22-.03 58.82 6.45-7.25 16.03-11.34 25.74-10.87 9.14-.39 18.27 4.01 23.48 11.56 6.63 9.76 8.24 21.91 8.79 33.43.05 27.01.01 54.03.02 81.04-12.09.02-24.17 0-36.25.01v-62.05c-.04-7.18.22-14.4-.67-21.54-.61-3.64-1.65-7.67-4.71-10.03-3.57-2.19-8.75-1.42-11.46 1.81-4.15 4.49-4.63 10.94-4.91 16.76-.01 25.01.01 50.02 0 75.04-12.09.02-24.17.01-36.25.01V613Zm-282.98 6.41c13.78-3 27.94-3.7 42.01-3.4 13.65.44 28.28 2.85 38.93 12.08 11.72 9.52 16.46 25.3 16.06 39.96.29 15.53-4.81 31.75-16.32 42.58-11.98 10.72-28.6 15.17-44.44 14.37-.02 20.66 0 41.33-.01 61.99-12.08.02-24.17.01-36.25.01.01-55.86-.02-111.73.02-167.59m36.32 27.27c-.21 16.1-.02 32.21-.1 48.31 6.2.46 13.06-.52 17.69-5.03 5.83-5.63 7.12-14.27 6.9-22.01-.3-6.83-2.11-14.46-7.95-18.7-4.73-3.54-10.98-3.38-16.54-2.57Zm176.68-8.21c12.09-2.82 24.16-5.72 36.24-8.57-.02 11.03-.01 22.06-.01 33.1 7.92 0 15.84 0 23.76-.01-.01 9.01-.02 18.01 0 27.02-7.92-.02-15.84-.01-23.76-.01.04 17.66-.08 35.31.06 52.97.25 4.93.92 11.27 6.03 13.59 4.74 1.55 9.86.41 14.66-.36-.16 9.75.31 19.48.31 29.23-9.49 2.54-19.47 3.17-29.23 2.18-8.12-.99-16.14-4.91-20.84-11.78-5.39-7.43-6.81-16.86-7.22-25.81-.04-20.01-.02-40.02-.01-60.03-4.76.01-9.51.02-14.26 0 0-8.99-.01-17.99 0-26.98 4.75-.02 9.5-.01 14.25-.01.01-8.18-.03-16.36.02-24.53Zm-107.43 32.56c13.94-8.12 30.54-10.93 46.5-9.84 10.59.83 21.4 5.01 28.1 13.57 7.75 9.9 9.65 22.98 9.82 35.21-.03 15.67 0 31.35-.02 47.03.3 10.05.36 20.2 2.61 30.06-11.18-.12-22.35-.06-33.52-.03-.46-2.95-.9-5.89-1.3-8.83-10.29 11.25-28.38 14.36-41.64 6.72-8.42-4.71-14.15-13.37-16.38-22.64-3.37-14.12-.73-30.26 9.46-41.07 11.29-12 28.27-16.77 44.31-17.27-.26-4.47-1.28-9.52-5.21-12.24-4.45-3.26-10.27-2.94-15.47-2.46-7.3.73-14.07 3.87-20.12 7.88-2.45-8.68-4.74-17.4-7.14-26.09m31.82 64.39c-4.03 4.03-4.89 10.2-4 15.62.6 4.05 2.69 8.4 6.79 9.86 4.25 1.32 8.92-.89 11.5-4.32 2.35-2.97 2.7-6.92 2.79-10.56.02-5.64.01-11.27-.02-16.9-6.06.54-12.61 1.81-17.06 6.3Z" fill="#fff" fill-rule="nonzero"/></svg>
