<svg
    viewBox="0 0 100 100"
    xmlns="http://www.w3.org/2000/svg"
    xml:space="preserve"
    fill-rule="evenodd"
    clip-rule="evenodd"
    stroke-linejoin="round"
    stroke-miterlimit="2"
>
    <path
        d="M100 13.831a2 2 0 0 0-2-2H71.052a1.999 1.999 0 0 0-2 2v8.343a2 2 0 0 0 2 2H98a1.999 1.999 0 0 0 2-2V13.83ZM100 29.83a2 2 0 0 0-2-2H71.052a1.999 1.999 0 0 0-2 2v8.343a2 2 0 0 0 2 2H98a1.999 1.999 0 0 0 2-2V29.83ZM30.947 29.83a2 2 0 0 0-2-2H2a1.999 1.999 0 0 0-2 2v8.343a2 2 0 0 0 2 2h26.947a1.999 1.999 0 0 0 2-2V29.83ZM100 45.829a2 2 0 0 0-2-2H71.052a1.999 1.999 0 0 0-2 2v8.342a2 2 0 0 0 2 2H98a1.999 1.999 0 0 0 2-2V45.83ZM65.473 45.829a2 2 0 0 0-2-2H36.526a1.999 1.999 0 0 0-2 2v8.342a2 2 0 0 0 2 2h26.947a1.999 1.999 0 0 0 2-2V45.83ZM30.947 45.829a2 2 0 0 0-2-2H2a1.999 1.999 0 0 0-2 2v8.342a2 2 0 0 0 2 2h26.947a1.999 1.999 0 0 0 2-2V45.83ZM100 61.828a2 2 0 0 0-2-2H71.052a1.999 1.999 0 0 0-2 2v8.342a2 2 0 0 0 2 2H98a1.999 1.999 0 0 0 2-2v-8.342ZM65.473 61.828a2 2 0 0 0-2-2H36.526a1.999 1.999 0 0 0-2 2v8.342a2 2 0 0 0 2 2h26.947a1.999 1.999 0 0 0 2-2v-8.342ZM30.947 61.828a2 2 0 0 0-2-2H2a1.999 1.999 0 0 0-2 2v8.342a2 2 0 0 0 2 2h26.947a1.999 1.999 0 0 0 2-2v-8.342ZM100 77.826a2 2 0 0 0-2-2H71.052a1.999 1.999 0 0 0-2 2v8.343a2 2 0 0 0 2 2H98a1.999 1.999 0 0 0 2-2v-8.343ZM65.473 77.826a2 2 0 0 0-2-2H36.526a1.999 1.999 0 0 0-2 2v8.343a2 2 0 0 0 2 2h26.947a1.999 1.999 0 0 0 2-2v-8.343ZM30.947 77.826a2 2 0 0 0-2-2H2a1.999 1.999 0 0 0-2 2v8.343a2 2 0 0 0 2 2h26.947a1.999 1.999 0 0 0 2-2v-8.343Z"
        fill="#8d39fa"
    />
</svg>
